<svg width="288" height="288" viewBox="0 0 288 288" fill="none" xmlns="http://www.w3.org/2000/svg">
<path fill-rule="evenodd" clip-rule="evenodd" d="M58 117.836V183.385H222.182V94L179.338 144.755L140.091 109.411L95.0898 150.097L58.1027 117.836H58ZM151.495 177.837H126.837L99.5077 153.693L140.091 116.809H140.296L175.742 148.967L151.495 177.837ZM63.4453 129.754V177.837H64.37L90.8774 153.693L63.4453 129.754ZM118.412 177.837H72.7948V177.735L95.0898 157.495H95.2953L118.412 177.735V177.837ZM158.893 177.837H207.592V177.735L179.955 152.768L158.893 177.735V177.837ZM216.839 177.837H215.914L183.756 148.556V148.35L216.736 109H216.839V177.837Z" fill="white" stroke="white" stroke-width="0.205484"/>
</svg>
